<svg width="73" height="71" viewBox="0 0 73 71" fill="none" xmlns="http://www.w3.org/2000/svg">
<rect width="73" height="70" transform="matrix(-1 0 0 1 73 0.184204)" fill="#F4F4F4"/>
<path d="M26.2132 33.0336H47.9136C47.939 33.0336 47.9707 33.0336 47.9961 33.0284C48.2753 32.9917 48.4593 32.7766 48.4149 32.5457L45.8642 19.5357C45.8261 19.3311 45.6103 19.1842 45.3629 19.1842H28.7639C28.5165 19.1842 28.3007 19.3311 28.2627 19.5357L25.7119 32.5457C25.7056 32.5667 25.7056 32.593 25.7056 32.6139C25.7056 32.8448 25.934 33.0336 26.2132 33.0336ZM32 22.7515H42.1205L43.434 29.4663H30.6802L32 22.7515V22.7515ZM32.1586 37.5819C32.1205 37.3773 31.9048 37.2304 31.6573 37.2304H15.0584C14.8109 37.2304 14.5952 37.3773 14.5571 37.5819L12.0063 50.592C12 50.6129 12 50.6392 12 50.6602C12 50.891 12.2284 51.0798 12.5076 51.0798H34.2081C34.2335 51.0798 34.2652 51.0798 34.2906 51.0746C34.5698 51.0379 34.7538 50.8228 34.7093 50.592L32.1586 37.5819V37.5819ZM16.981 47.5126L18.2944 40.7977H28.4149L29.7284 47.5126H16.981ZM61.9936 50.592L59.4428 37.5819C59.4047 37.3773 59.189 37.2304 58.9415 37.2304H42.3426C42.0951 37.2304 41.8794 37.3773 41.8413 37.5819L39.2906 50.592C39.2842 50.6129 39.2842 50.6392 39.2842 50.6602C39.2842 50.891 39.5126 51.0798 39.7918 51.0798H61.4923C61.5177 51.0798 61.5494 51.0798 61.5748 51.0746C61.8476 51.0379 62.038 50.8228 61.9936 50.592V50.592ZM44.2652 47.5126L45.5786 40.7977H55.6992L57.0126 47.5126H44.2652Z" fill="#1B284C"/>
</svg>
