<svg width="45" height="40" viewBox="0 0 45 40" fill="none" xmlns="http://www.w3.org/2000/svg">
<path d="M44.0608 6.24841C43.8047 5.03846 43.3024 3.93506 42.6043 3.04864C41.9063 2.16221 41.0369 1.52386 40.0831 1.19745C36.5725 2.38419e-07 22.5 0 22.5 0C22.5 0 8.42745 -2.38419e-07 4.91685 1.19108C3.96271 1.51643 3.09287 2.15443 2.39467 3.04102C1.69647 3.92761 1.19451 5.03157 0.939174 6.24204C-1.78814e-07 10.7006 0 20 0 20C0 20 -1.78814e-07 29.2994 0.939174 33.7516C1.45647 36.2102 2.98326 38.1465 4.91685 38.8025C8.42745 40 22.5 40 22.5 40C22.5 40 36.5725 40 40.0831 38.8025C42.0218 38.1465 43.5435 36.2102 44.0608 33.7516C45 29.2994 45 20 45 20C45 20 45 10.7006 44.0608 6.24841ZM18.0301 28.535V11.465L29.6819 19.9363L18.0301 28.535Z" fill="#1B284C"/>
</svg>
