<svg width="32" height="32" viewBox="0 0 32 32" fill="none" xmlns="http://www.w3.org/2000/svg">
    <path
        d="M16.3309 15.6922L12.3418 10.5953C12.295 10.5344 12.2215 10.5 12.145 10.5H10.9371C10.8325 10.5 10.7746 10.6203 10.8387 10.7016L14.9856 16L10.8387 21.2984C10.8243 21.3169 10.8153 21.339 10.8129 21.3622C10.8104 21.3855 10.8146 21.409 10.8248 21.43C10.8351 21.4511 10.8511 21.4688 10.8709 21.4811C10.8908 21.4935 10.9137 21.5001 10.9371 21.5H12.145C12.2215 21.5 12.295 21.4641 12.3418 21.4047L16.3309 16.3094C16.4731 16.1266 16.4731 15.8734 16.3309 15.6922ZM21.0809 15.6922L17.0918 10.5953C17.045 10.5344 16.9715 10.5 16.895 10.5H15.6871C15.5825 10.5 15.5246 10.6203 15.5887 10.7016L19.7356 16L15.5887 21.2984C15.5743 21.3169 15.5653 21.339 15.5629 21.3622C15.5604 21.3855 15.5646 21.409 15.5748 21.43C15.5851 21.4511 15.6011 21.4688 15.6209 21.4811C15.6408 21.4935 15.6637 21.5001 15.6871 21.5H16.895C16.9715 21.5 17.045 21.4641 17.0918 21.4047L21.0809 16.3094C21.2231 16.1266 21.2231 15.8734 21.0809 15.6922Z"
        fill="black" />
</svg>