<svg width="17" height="8" viewBox="0 0 17 8" fill="none" xmlns="http://www.w3.org/2000/svg">
<path d="M5.28528 4.15634C5.26951 4.18228 5.24634 4.20412 5.21805 4.21972C5.18977 4.23532 5.15736 4.24412 5.12404 4.24526C5.01152 4.24674 4.82823 4.12076 4.79656 4.09855C4.7649 4.07633 4.48916 3.8214 4.27769 3.74431C4.1638 3.70147 4.04034 3.68214 3.91671 3.68779C3.79308 3.69345 3.67254 3.72393 3.56428 3.77691C3.56428 3.77691 3.07127 3.99524 2.78005 4.76598C2.48883 5.53671 2.48424 6.16113 2.79797 6.38642C3.1117 6.61172 3.47867 6.43762 3.72494 6.34691C3.97121 6.25619 4.38319 6.03863 4.52204 6.02681C4.6609 6.01498 4.75039 6.04657 4.70115 6.25998C4.65191 6.4734 4.29364 7.3009 4.20409 7.41946C3.9886 7.56217 3.74649 7.67052 3.48871 7.73961C3.12271 7.83384 2.7357 7.84506 2.36349 7.77221C2.0276 7.70997 1.647 7.51037 1.30207 7.18234C0.957137 6.85431 0.751059 6.18094 0.840844 5.38262C0.930629 4.5843 1.46325 3.69501 2.07232 3.15351C2.68139 2.61201 3.22764 2.43023 3.76502 2.41047C4.3024 2.39071 4.97967 2.65056 5.37263 3.11297C5.38961 3.13563 5.4021 3.16068 5.40957 3.18704C5.40957 3.18704 5.44647 3.97354 5.28528 4.15634Z" fill="#1B284C"/>
<path d="M8.02248 2.55762L6.51445 7.81572H5.57745C5.57745 7.81572 5.14418 7.83057 5.02644 7.69419C4.90869 7.55782 4.93242 7.43311 5.00295 7.13692C5.07348 6.84072 6.06761 3.3491 6.06761 3.3491C6.06761 3.3491 6.20531 2.86277 6.33633 2.73848C6.46736 2.61418 6.63214 2.55767 6.93079 2.55767L8.02248 2.55762Z" fill="#1B284C"/>
<path d="M7.75042 0.21442C7.75042 0.21442 8.23074 0.196654 8.47927 0.430834C8.57049 0.514912 8.62625 0.624072 8.63725 0.740077C8.64825 0.856082 8.61382 0.971905 8.53971 1.0682C8.44233 1.19865 8.1837 1.56031 7.38437 1.56031C6.58504 1.56031 6.57495 1.10378 6.57495 1.02668C6.58424 0.85793 6.66448 0.698305 6.8 0.579001C7.03166 0.365659 7.30711 0.21442 7.75042 0.21442Z" fill="#1B284C"/>
<path d="M9.16437 2.55784H8.40194L8.0795 3.70509H8.84188L7.64966 7.81684H8.85876C8.85876 7.81684 9.37596 7.83414 9.55733 7.22945C9.7387 6.62475 10.5649 3.70831 10.5649 3.70831H11.25C11.25 3.70831 11.4482 3.70831 11.5221 3.66091C11.5959 3.6135 11.6699 3.59568 11.7269 3.39705C11.784 3.19842 11.898 2.80981 11.898 2.80981C11.898 2.80981 11.935 2.69719 11.8577 2.63489C11.7865 2.58208 11.6955 2.55459 11.6025 2.55779H10.9277L11.4787 0.693222C11.4787 0.693222 11.5391 0.524284 11.4551 0.402699C11.3712 0.281115 11.2198 0.224854 10.9613 0.224854C10.7027 0.224854 10.397 0.322684 10.2123 0.387905C10.0275 0.453125 9.82268 0.574658 9.7286 0.687284L9.16437 2.55784Z" fill="#1B284C"/>
<path d="M10.3835 6.29067V7.19323C10.3835 7.19323 10.4531 7.20112 10.6052 7.12407C10.7573 7.04703 11.5882 6.45469 11.7069 6.40529C11.8255 6.35589 12.1187 6.21163 12.3696 6.44481C12.6206 6.67799 12.8756 7.01539 13.0145 7.15177C13.1534 7.28814 13.1735 7.29797 13.2563 7.381C13.4239 7.546 13.6414 7.6653 13.8832 7.72486C14.2169 7.8059 14.8461 7.89088 15.6297 7.67152C16.4134 7.45216 16.6328 7.35142 16.8522 7.09054C17.0717 6.82967 16.9933 6.36362 16.9508 6.3006C16.9258 6.26412 16.9083 6.22396 16.8993 6.18204C16.8158 6.18758 16.7344 6.20773 16.6598 6.24132C16.5388 6.29666 16.3709 6.36387 16.2254 6.42909C16.0799 6.49431 15.5492 6.6208 15.5022 6.62874C15.4551 6.63667 15.1774 6.65044 15.0947 6.61492C14.9966 6.57442 14.9118 6.51252 14.8484 6.43508C14.7494 6.30202 14.6604 6.16339 14.5819 6.02007C14.5349 5.91927 14.4229 5.73155 14.3847 5.53195C14.3465 5.33235 14.2369 5.13081 14.172 5.0873C13.9696 4.97509 13.7502 4.88861 13.5204 4.83042C13.2159 4.75332 13.0212 4.80078 12.9539 4.83042C12.8867 4.86006 12.6965 4.92727 12.589 4.98256C12.4815 5.03785 11.821 5.39757 11.4381 5.62087C11.0553 5.84417 10.6992 6.05564 10.5873 6.13279C10.4754 6.20994 10.4373 6.22745 10.3835 6.29067Z" fill="#1B284C"/>
<path d="M14.2226 2.19578C14.2226 2.19578 13.5777 2.39143 13.2385 2.62261C12.8993 2.85379 12.8758 2.86863 12.8422 3.09393C12.8086 3.31922 12.8959 3.58597 13.2117 3.66307C13.5274 3.74016 13.9203 3.70458 14.1319 3.67197C14.3435 3.63937 14.8272 3.47929 15.0287 3.33411C15.2302 3.18894 15.3344 2.9725 15.3645 2.93395C15.3947 2.89541 15.43 2.77685 15.4989 2.65384C15.5678 2.53082 15.6501 2.41524 15.6484 2.27886C15.6467 2.14249 15.6148 1.98538 15.2336 1.98707C14.8524 1.98876 14.4637 2.11485 14.2226 2.19578Z" fill="#1B284C"/>
</svg>
