<svg width="73" height="71" viewBox="0 0 73 71" fill="none" xmlns="http://www.w3.org/2000/svg">
<rect width="73" height="70" transform="matrix(-1 0 0 1 73 0.184204)" fill="#F4F4F4"/>
<path d="M58.2119 40.2558C55.7821 39.2621 52.8206 39.5287 50.8253 40.7728L47.7953 39.5328V33.4054C47.7953 32.7712 47.315 32.1815 46.5375 31.8665L38.7622 28.7038V25.9936C41.2892 25.3877 43.1072 23.6993 43.1072 21.708C43.1072 19.2078 40.2429 17.1842 36.704 17.1842C33.1651 17.1842 30.3009 19.2078 30.3009 21.708C30.3009 23.6993 32.1189 25.3877 34.6459 25.9936V28.7038L26.8706 31.8665C26.0931 32.1815 25.6128 32.7712 25.6128 33.4054V39.5287L22.5828 40.7687C20.5875 39.5247 17.6203 39.2581 15.1962 40.2517C12.1376 41.5039 11.0971 44.2666 12.8522 46.4276C14.6131 48.5885 18.5064 49.3317 21.5537 48.0836C23.9834 47.09 25.1383 45.135 24.6181 43.2851L27.4023 42.142L35.4406 45.4137C35.8293 45.5713 36.2638 45.6521 36.6983 45.6521C37.1328 45.6521 37.5673 45.5713 37.9561 45.4137L45.9887 42.1461L48.7729 43.2892C48.2526 45.135 49.4132 47.094 51.8373 48.0877C54.8845 49.3358 58.7836 48.5966 60.5387 46.4316C62.2996 44.2666 61.2591 41.5039 58.2119 40.2558V40.2558ZM19.7356 45.8459C19.4251 45.973 19.0821 46.0554 18.7263 46.0885C18.3705 46.1215 18.0089 46.1045 17.6625 46.0384C17.316 45.9723 16.9915 45.8585 16.7076 45.7035C16.4236 45.5484 16.1859 45.3553 16.0081 45.135C15.2534 44.2101 15.6993 43.0226 17.0086 42.4894C17.3191 42.3623 17.6621 42.2799 18.0179 42.2469C18.3737 42.2139 18.7352 42.2309 19.0817 42.2969C19.4281 42.363 19.7527 42.4768 20.0366 42.6319C20.3205 42.7869 20.5583 42.9801 20.7361 43.2003C21.4908 44.1253 21.0448 45.3128 19.7356 45.8459ZM33.9541 21.708C33.9688 21.2007 34.2643 20.7176 34.7774 20.3625C35.2904 20.0073 35.9801 19.8084 36.6983 19.8084C37.4166 19.8084 38.1062 20.0073 38.6193 20.3625C39.1323 20.7176 39.4279 21.2007 39.4426 21.708C39.4279 22.2154 39.1323 22.6985 38.6193 23.0536C38.1062 23.4087 37.4166 23.6077 36.6983 23.6077C35.9801 23.6077 35.2904 23.4087 34.7774 23.0536C34.2643 22.6985 33.9688 22.2154 33.9541 21.708V21.708ZM43.6732 39.7307L36.6983 42.5702L29.7234 39.7307V34.0597L36.6983 31.2202L43.6732 34.0597V39.7307V39.7307ZM57.3886 45.1391C56.6339 46.064 54.9645 46.3831 53.661 45.85C52.3575 45.3168 51.9059 44.1293 52.6605 43.2043C53.4152 42.2794 55.0846 41.9603 56.3881 42.4934C57.6973 43.0266 58.1433 44.2101 57.3886 45.1391Z" fill="#1B284C"/>
</svg>
