<svg width="100" height="101" viewBox="0 0 100 101" fill="none" xmlns="http://www.w3.org/2000/svg">
<path d="M88.2143 82.7433C88.2366 82.7098 88.2701 82.6763 88.2924 82.6429C95.6027 73.9487 100 62.7433 100 50.5C100 38.2567 95.6027 27.0513 88.3036 18.3571C88.2812 18.3237 88.2478 18.3013 88.2254 18.2679C88.1027 18.1228 87.9911 17.9888 87.8683 17.8549C87.8237 17.7991 87.779 17.7545 87.7344 17.6987L87.2768 17.1741L87.2656 17.1629C87.0982 16.9732 86.9196 16.7835 86.7522 16.5938L86.7411 16.5826C86.3839 16.2031 86.0268 15.8237 85.6585 15.4554L85.6473 15.4442L85.1116 14.9085L85.0781 14.875C84.9107 14.7076 84.7433 14.5513 84.5759 14.3951C84.5201 14.3393 84.4643 14.2835 84.3973 14.2277C84.2857 14.1161 84.1741 14.0156 84.0625 13.9152C84.029 13.8817 83.9844 13.8482 83.9509 13.8036C75.0446 5.54464 63.1138 0.5 50 0.5C36.8862 0.5 24.9554 5.54464 16.0379 13.8036C16.0045 13.8371 15.9598 13.8705 15.9263 13.9152C15.8147 14.0156 15.7031 14.1272 15.5915 14.2388C15.5357 14.2946 15.4799 14.3504 15.4129 14.4063C15.2455 14.5625 15.0781 14.7299 14.9107 14.8862L14.8772 14.9196L14.3415 15.4554L14.3304 15.4665C13.9621 15.8348 13.6049 16.2143 13.2478 16.5938L13.2366 16.6049C13.058 16.7946 12.8906 16.9844 12.7232 17.1741L12.7121 17.1853C12.5558 17.3527 12.3996 17.5312 12.2545 17.7098C12.2098 17.7656 12.1652 17.8103 12.1205 17.8661C11.9978 18 11.8862 18.1451 11.7634 18.279C11.7411 18.3125 11.7076 18.3348 11.6853 18.3683C4.39732 27.0513 0 38.2567 0 50.5C0 62.7433 4.39732 73.9487 11.6964 82.6429C11.7188 82.6763 11.7522 82.7098 11.7746 82.7433L12.1205 83.1562C12.1652 83.2121 12.2098 83.2567 12.2545 83.3125L12.7121 83.8371C12.7121 83.8482 12.7232 83.8482 12.7232 83.8594C12.8906 84.0491 13.058 84.2388 13.2366 84.4174L13.2478 84.4286C13.6049 84.808 13.9621 85.1875 14.3192 85.5558L14.3304 85.567C14.5089 85.7455 14.6763 85.9241 14.8549 86.0915L14.8884 86.125C15.2567 86.4933 15.6362 86.8504 16.0156 87.1964C24.9554 95.4554 36.8862 100.5 50 100.5C63.1138 100.5 75.0446 95.4554 83.9621 87.1964C84.3423 86.8479 84.7144 86.4907 85.0781 86.125L85.1116 86.0915C85.2902 85.9129 85.4688 85.7455 85.6362 85.567L85.6473 85.5558C86.0156 85.1875 86.3728 84.808 86.7188 84.4286L86.7299 84.4174C86.8973 84.2277 87.0759 84.0491 87.2433 83.8594C87.2433 83.8482 87.2545 83.8482 87.2545 83.8371C87.4107 83.6696 87.567 83.4911 87.7121 83.3125C87.7567 83.2567 87.8013 83.2121 87.846 83.1562C87.9722 83.0217 88.095 82.884 88.2143 82.7433ZM88.6719 66.8281C87.1317 70.4665 85.1004 73.8371 82.6228 76.8951C79.8323 74.4835 76.7815 72.3909 73.5268 70.6562C74.8214 65.4219 75.625 59.6741 75.8371 53.625H91.8527C91.5179 58.1897 90.4464 62.6205 88.6719 66.8281ZM91.8527 47.375H75.8371C75.625 41.3259 74.8214 35.5781 73.5268 30.3437C76.7969 28.6027 79.8438 26.5045 82.6228 24.1049C88.0086 30.7341 91.2303 38.8564 91.8527 47.375ZM66.3281 11.8281C70.7589 13.7031 74.7879 16.2924 78.3371 19.5513C76.2753 21.3068 74.0561 22.8685 71.7076 24.2165C69.9554 19.1942 67.7121 14.8304 65.1004 11.3371C65.5134 11.4933 65.9263 11.6607 66.3281 11.8281ZM56.2165 90.0201C55.1897 90.8237 54.1629 91.4375 53.125 91.8504V71.1473C57.5535 71.4563 61.9084 72.4424 66.0379 74.0714C65.1116 76.817 64.0402 79.3504 62.8013 81.6384C60.8594 85.2545 58.5826 88.1451 56.2165 90.0201ZM62.8013 19.3616C64.029 21.6607 65.1116 24.1942 66.0379 26.9286C61.9084 28.5576 57.5535 29.5437 53.125 29.8527V9.16072C54.1518 9.57366 55.1897 10.1763 56.2165 10.9911C58.5826 12.8549 60.8594 15.7455 62.8013 19.3616ZM53.125 64.8862V53.625H69.5871C69.4085 58.558 68.7946 63.346 67.7679 67.8884L67.7344 68.0223C63.0506 66.2462 58.1251 65.1889 53.125 64.8862ZM53.125 47.375V36.1138C58.2366 35.8013 63.1473 34.7187 67.7344 32.9777L67.7679 33.1116C68.7946 37.654 69.4085 42.4308 69.5871 47.375H53.125ZM46.875 53.625V64.8862C41.7634 65.1987 36.8527 66.2812 32.2656 68.0223L32.2321 67.8884C31.2054 63.346 30.5915 58.5692 30.4129 53.625H46.875ZM30.4129 47.375C30.5915 42.442 31.2054 37.654 32.2321 33.1116L32.2656 32.9777C36.8527 34.7187 41.7522 35.8013 46.875 36.1138V47.375H30.4129ZM46.875 71.1473V91.8393C45.8482 91.4263 44.8103 90.8237 43.7835 90.0089C41.4174 88.1451 39.1295 85.2433 37.1875 81.6272C35.9598 79.3281 34.8772 76.7946 33.9509 74.0603C38.1027 72.4308 42.4219 71.4598 46.875 71.1473ZM46.875 29.8527C42.4465 29.5437 38.0916 28.5576 33.9621 26.9286C34.8884 24.183 35.9598 21.6496 37.1987 19.3616C39.1406 15.7455 41.4174 12.8437 43.7946 10.9799C44.8214 10.1763 45.8482 9.5625 46.8862 9.14955V29.8527H46.875ZM33.6719 11.8281C34.0848 11.6607 34.4866 11.4933 34.8996 11.3371C32.2879 14.8304 30.0446 19.1942 28.2924 24.2165C25.9487 22.8772 23.7277 21.3147 21.6629 19.5513C25.2121 16.2924 29.2411 13.7031 33.6719 11.8281ZM11.3281 34.1719C12.8683 30.5335 14.8996 27.1629 17.3772 24.1049C20.1562 26.5045 23.2031 28.6027 26.4732 30.3437C25.1786 35.5781 24.375 41.3259 24.1629 47.375H8.14732C8.48214 42.8103 9.55357 38.3795 11.3281 34.1719ZM8.14732 53.625H24.1629C24.375 59.6741 25.1786 65.4219 26.4732 70.6562C23.2185 72.3909 20.1677 74.4835 17.3772 76.8951C11.9914 70.2659 8.76973 62.1436 8.14732 53.625ZM33.6719 89.1719C29.2411 87.2969 25.2121 84.7076 21.6629 81.4487C23.7277 79.6853 25.9487 78.1339 28.2924 76.7835C30.0446 81.8058 32.2879 86.1696 34.8996 89.6629C34.4866 89.5067 34.0737 89.3393 33.6719 89.1719ZM66.3281 89.1719C65.9152 89.3393 65.5134 89.5067 65.1004 89.6629C67.7121 86.1696 69.9554 81.8058 71.7076 76.7835C74.0513 78.1228 76.2723 79.6853 78.3371 81.4487C74.8076 84.694 70.7452 87.3067 66.3281 89.1719Z" fill="#F4F4F4"/>
</svg>
