<svg width="40" height="26" viewBox="0 0 40 26" fill="none" xmlns="http://www.w3.org/2000/svg">
<path d="M1.65 25.36C1.21 25.36 0.88 25.25 0.66 25.03C0.44 24.7367 0.403333 24.3333 0.55 23.82L8.47 1.59999C8.69 0.866661 9.16667 0.499995 9.9 0.499995H19.14C20.1667 0.499995 20.57 0.976662 20.35 1.93L15.29 24.15C15.07 24.9567 14.5933 25.36 13.86 25.36H1.65ZM21.12 25.36C20.68 25.36 20.35 25.25 20.13 25.03C19.91 24.7367 19.8733 24.3333 20.02 23.82L27.83 1.59999C28.05 0.866661 28.5267 0.499995 29.26 0.499995H38.5C39.4533 0.499995 39.82 0.976662 39.6 1.93L34.76 24.15C34.6133 24.9567 34.1367 25.36 33.33 25.36H21.12Z" fill="black"/>
</svg>
