<svg width="40" height="40" viewBox="0 0 40 40" fill="none" xmlns="http://www.w3.org/2000/svg">
<path d="M19.9983 13.4929C16.4144 13.4929 13.4896 16.4177 13.4896 20.0017C13.4896 23.5857 16.4144 26.5105 19.9983 26.5105C23.5823 26.5105 26.5071 23.5857 26.5071 20.0017C26.5071 16.4177 23.5823 13.4929 19.9983 13.4929ZM39.5198 20.0017C39.5198 17.3064 39.5442 14.6355 39.3929 11.9451C39.2415 8.82006 38.5286 6.04662 36.2435 3.76146C33.9534 1.47142 31.1849 0.763415 28.0599 0.612048C25.3645 0.460681 22.6936 0.485095 20.0032 0.485095C17.3079 0.485095 14.637 0.460681 11.9466 0.612048C8.82158 0.763415 6.04814 1.47631 3.76299 3.76146C1.47295 6.0515 0.764941 8.82006 0.613574 11.9451C0.462207 14.6404 0.486621 17.3113 0.486621 20.0017C0.486621 22.6921 0.462207 25.3679 0.613574 28.0583C0.764941 31.1833 1.47783 33.9568 3.76299 36.2419C6.05303 38.532 8.82158 39.24 11.9466 39.3913C14.6419 39.5427 17.3128 39.5183 20.0032 39.5183C22.6985 39.5183 25.3694 39.5427 28.0599 39.3913C31.1849 39.24 33.9583 38.5271 36.2435 36.2419C38.5335 33.9519 39.2415 31.1833 39.3929 28.0583C39.5491 25.3679 39.5198 22.697 39.5198 20.0017ZM19.9983 30.0163C14.4563 30.0163 9.98369 25.5437 9.98369 20.0017C9.98369 14.4597 14.4563 9.98705 19.9983 9.98705C25.5403 9.98705 30.013 14.4597 30.013 20.0017C30.013 25.5437 25.5403 30.0163 19.9983 30.0163ZM30.4231 11.9158C29.1292 11.9158 28.0843 10.8708 28.0843 9.57689C28.0843 8.28295 29.1292 7.23802 30.4231 7.23802C31.7171 7.23802 32.762 8.28295 32.762 9.57689C32.7624 9.88414 32.7022 10.1885 32.5848 10.4724C32.4674 10.7563 32.2951 11.0143 32.0778 11.2316C31.8606 11.4488 31.6026 11.6211 31.3186 11.7385C31.0347 11.8559 30.7304 11.9161 30.4231 11.9158Z" fill="#1B284C"/>
</svg>
