<svg width="40" height="40" viewBox="0 0 40 40" fill="none" xmlns="http://www.w3.org/2000/svg">
<path d="M37.9688 0.46875H2.03125C1.16699 0.46875 0.46875 1.16699 0.46875 2.03125V37.9688C0.46875 38.833 1.16699 39.5312 2.03125 39.5312H37.9688C38.833 39.5312 39.5312 38.833 39.5312 37.9688V2.03125C39.5312 1.16699 38.833 0.46875 37.9688 0.46875ZM32.5 10.5127L30.5078 12.4219C30.332 12.5537 30.249 12.7686 30.2832 12.9785V27.0264C30.249 27.2412 30.332 27.4561 30.5078 27.583L32.4609 29.4922V29.917H22.6563V29.5117L24.6729 27.5537C24.873 27.3535 24.873 27.2949 24.873 26.9971V15.6299L19.2578 29.8682H18.501L11.9678 15.6299V25.1758C11.9092 25.5762 12.0508 25.9814 12.334 26.2695L14.9609 29.4482V29.873H7.5V29.4482L10.127 26.2695C10.2654 26.1266 10.3684 25.9532 10.4277 25.7632C10.4871 25.5733 10.5011 25.3721 10.4687 25.1758V14.1406C10.5029 13.833 10.3857 13.5352 10.1514 13.3252L7.81738 10.5127V10.0879H15.0684L20.6641 22.3682L25.5908 10.0977H32.5V10.5127Z" fill="#1B284C"/>
</svg>
