<svg width="73" height="70" viewBox="0 0 73 70" fill="none" xmlns="http://www.w3.org/2000/svg">
<rect y="0.184204" width="73" height="69.6047" fill="#F4F4F4"/>
<path d="M56.1071 49.5123C56.1183 49.4975 56.135 49.4827 56.1462 49.4679C59.8013 45.6276 62 40.678 62 35.27C62 29.8619 59.8013 24.9123 56.1518 21.072C56.1406 21.0572 56.1239 21.0473 56.1127 21.0325C56.0513 20.9684 55.9955 20.9093 55.9342 20.8501C55.9118 20.8255 55.8895 20.8058 55.8672 20.7811L55.6384 20.5494L55.6328 20.5445C55.5491 20.4607 55.4598 20.3769 55.3761 20.2931L55.3705 20.2881C55.192 20.1205 55.0134 19.9529 54.8292 19.7902L54.8237 19.7853L54.5558 19.5486L54.5391 19.5339C54.4554 19.4599 54.3717 19.3909 54.2879 19.3219C54.26 19.2972 54.2321 19.2726 54.1987 19.2479C54.1429 19.1986 54.0871 19.1543 54.0312 19.1099C54.0145 19.0951 53.9922 19.0803 53.9754 19.0606C49.5223 15.4125 43.5569 13.1842 37 13.1842C30.4431 13.1842 24.4777 15.4125 20.019 19.0606C20.0022 19.0754 19.9799 19.0902 19.9632 19.1099C19.9074 19.1543 19.8516 19.2036 19.7958 19.2529C19.7679 19.2775 19.74 19.3022 19.7065 19.3268C19.6228 19.3958 19.5391 19.4698 19.4554 19.5388L19.4386 19.5536L19.1708 19.7902L19.1652 19.7951C18.981 19.9578 18.8025 20.1254 18.6239 20.2931L18.6183 20.298C18.529 20.3818 18.4453 20.4656 18.3616 20.5494L18.356 20.5543C18.2779 20.6283 18.1998 20.7072 18.1272 20.786C18.1049 20.8107 18.0826 20.8304 18.0603 20.8551C17.9989 20.9142 17.9431 20.9783 17.8817 21.0375C17.8705 21.0523 17.8538 21.0621 17.8426 21.0769C14.1987 24.9123 12 29.8619 12 35.27C12 40.678 14.1987 45.6276 17.8482 49.4679C17.8594 49.4827 17.8761 49.4975 17.8873 49.5123L18.0603 49.6947C18.0826 49.7194 18.1049 49.7391 18.1272 49.7637L18.356 49.9954C18.356 50.0004 18.3616 50.0004 18.3616 50.0053C18.4453 50.0891 18.529 50.1729 18.6183 50.2518L18.6239 50.2567C18.8025 50.4243 18.981 50.5919 19.1596 50.7546L19.1652 50.7596C19.2545 50.8384 19.3382 50.9173 19.4275 50.9913L19.4442 51.0061C19.6283 51.1687 19.8181 51.3265 20.0078 51.4793C24.4777 55.1274 30.4431 57.3557 37 57.3557C43.5569 57.3557 49.5223 55.1274 53.981 51.4793C54.1711 51.3254 54.3572 51.1676 54.5391 51.0061L54.5558 50.9913C54.6451 50.9124 54.7344 50.8384 54.8181 50.7596L54.8237 50.7546C55.0078 50.5919 55.1864 50.4243 55.3594 50.2567L55.365 50.2518C55.4487 50.168 55.5379 50.0891 55.6217 50.0053C55.6217 50.0004 55.6272 50.0004 55.6272 49.9954C55.7054 49.9215 55.7835 49.8426 55.856 49.7637C55.8784 49.7391 55.9007 49.7194 55.923 49.6947C55.9861 49.6353 56.0475 49.5745 56.1071 49.5123ZM56.3359 42.4823C55.5658 44.0895 54.5502 45.5783 53.3114 46.9291C51.9162 45.8638 50.3907 44.9395 48.7634 44.1733C49.4107 41.8612 49.8125 39.3223 49.9185 36.6503H57.9263C57.7589 38.6666 57.2232 40.6238 56.3359 42.4823ZM57.9263 33.8896H49.9185C49.8125 31.2176 49.4107 28.6787 48.7634 26.3666C50.3984 25.5976 51.9219 24.6708 53.3114 23.6108C56.0043 26.5391 57.6151 30.1268 57.9263 33.8896ZM45.1641 18.188C47.3795 19.0162 49.394 20.1599 51.1685 21.5995C50.1377 22.3749 49.028 23.0647 47.8538 23.6601C46.9777 21.4417 45.856 19.5141 44.5502 17.9711C44.7567 18.0401 44.9632 18.1141 45.1641 18.188ZM40.1083 52.7266C39.5949 53.0815 39.0815 53.3527 38.5625 53.5351V44.3902C40.7767 44.5267 42.9542 44.9623 45.019 45.6818C44.5558 46.8946 44.0201 48.0136 43.4007 49.0243C42.4297 50.6215 41.2913 51.8984 40.1083 52.7266ZM43.4007 21.5157C44.0145 22.5312 44.5558 23.6503 45.019 24.8581C42.9542 25.5776 40.7767 26.0133 38.5625 26.1497V17.0098C39.0759 17.1922 39.5949 17.4584 40.1083 17.8183C41.2913 18.6416 42.4297 19.9184 43.4007 21.5157ZM38.5625 41.6245V36.6503H46.7935C46.7042 38.8293 46.3973 40.9442 45.8839 42.9507L45.8672 43.0098C43.5253 42.2253 41.0625 41.7582 38.5625 41.6245ZM38.5625 33.8896V28.9154C41.1183 28.7773 43.5737 28.2991 45.8672 27.5301L45.8839 27.5892C46.3973 29.5957 46.7042 31.7057 46.7935 33.8896H38.5625ZM35.4375 36.6503V41.6245C32.8817 41.7626 30.4263 42.2408 28.1328 43.0098L28.1161 42.9507C27.6027 40.9442 27.2958 38.8342 27.2065 36.6503H35.4375ZM27.2065 33.8896C27.2958 31.7106 27.6027 29.5957 28.1161 27.5892L28.1328 27.5301C30.4263 28.2991 32.8761 28.7773 35.4375 28.9154V33.8896H27.2065ZM35.4375 44.3902V53.5301C34.9241 53.3477 34.4051 53.0815 33.8917 52.7216C32.7087 51.8984 31.5647 50.6166 30.5938 49.0193C29.9799 48.0038 29.4386 46.8847 28.9754 45.6769C31.0513 44.9571 33.2109 44.5282 35.4375 44.3902ZM35.4375 26.1497C33.2233 26.0133 31.0458 25.5776 28.981 24.8581C29.4442 23.6454 29.9799 22.5263 30.5993 21.5157C31.5703 19.9184 32.7087 18.6366 33.8973 17.8133C34.4107 17.4584 34.9241 17.1872 35.4431 17.0048V26.1497H35.4375ZM28.8359 18.188C29.0424 18.1141 29.2433 18.0401 29.4498 17.9711C28.144 19.5141 27.0223 21.4417 26.1462 23.6601C24.9743 23.0686 23.8638 22.3784 22.8315 21.5995C24.606 20.1599 26.6205 19.0162 28.8359 18.188ZM17.6641 28.0576C18.4342 26.4504 19.4498 24.9616 20.6886 23.6108C22.0781 24.6708 23.6016 25.5976 25.2366 26.3666C24.5893 28.6787 24.1875 31.2176 24.0815 33.8896H16.0737C16.2411 31.8733 16.7768 29.9161 17.6641 28.0576ZM16.0737 36.6503H24.0815C24.1875 39.3223 24.5893 41.8612 25.2366 44.1733C23.6093 44.9395 22.0838 45.8638 20.6886 46.9291C17.9957 44.0009 16.3849 40.4131 16.0737 36.6503ZM28.8359 52.3519C26.6205 51.5237 24.606 50.38 22.8315 48.9404C23.8638 48.1615 24.9743 47.4763 26.1462 46.8798C27.0223 49.0982 28.144 51.0258 29.4498 52.5688C29.2433 52.4998 29.0368 52.4259 28.8359 52.3519ZM45.1641 52.3519C44.9576 52.4259 44.7567 52.4998 44.5502 52.5688C45.856 51.0258 46.9777 49.0982 47.8538 46.8798C49.0257 47.4714 50.1362 48.1615 51.1685 48.9404C49.4038 50.374 47.3726 51.528 45.1641 52.3519Z" fill="#1B284C"/>
</svg>
