<svg width="90" height="91" viewBox="0 0 90 91" fill="none" xmlns="http://www.w3.org/2000/svg">
<path d="M25.5837 39.5789H64.6445C64.6902 39.5789 64.7473 39.5789 64.793 39.5641C65.2956 39.4605 65.6268 38.8536 65.5468 38.2023L60.9555 1.49178C60.8869 0.914473 60.4986 0.5 60.0532 0.5H30.1751C29.7296 0.5 29.3413 0.914473 29.2728 1.49178L24.6814 38.2023C24.67 38.2615 24.67 38.3355 24.67 38.3947C24.67 39.0461 25.0812 39.5789 25.5837 39.5789ZM35.9999 10.5658H54.2169L56.5811 29.5132H33.6243L35.9999 10.5658ZM36.2855 52.4128C36.2169 51.8355 35.8286 51.4211 35.3832 51.4211H5.50507C5.05963 51.4211 4.67131 51.8355 4.60278 52.4128L0.0114211 89.1234C-1.75089e-07 89.1826 0 89.2566 0 89.3158C0 89.9671 0.411167 90.5 0.913704 90.5H39.9745C40.0202 90.5 40.0773 90.5 40.123 90.4852C40.6256 90.3816 40.9568 89.7747 40.8768 89.1234L36.2855 52.4128ZM8.96572 80.4342L11.3299 61.4868H29.5469L31.9111 80.4342H8.96572ZM89.9884 89.1234L85.397 52.4128C85.3285 51.8355 84.9402 51.4211 84.4948 51.4211H54.6166C54.1712 51.4211 53.7829 51.8355 53.7144 52.4128L49.123 89.1234C49.1116 89.1826 49.1116 89.2566 49.1116 89.3158C49.1116 89.9671 49.5228 90.5 50.0253 90.5H89.0861C89.1318 90.5 89.1889 90.5 89.2346 90.4852C89.7257 90.3816 90.0684 89.7747 89.9884 89.1234ZM58.0773 80.4342L60.4415 61.4868H78.6585L81.0227 80.4342H58.0773Z" fill="#F4F4F4"/>
</svg>
